{"title":"Iron.Man.2008.1080p.BluRay.DTS.x264-LTT","uid":5544680,"size":7297271366,"categoryP":"video","categoryS":"hd___movies","magnet":"?xt=urn:btih:0c711f6c7c9918d183e82acdb6d30b61c011f841&amp;dn=Iron.Man.2008.1080p.BluRay.DTS.x264-LTT&amp;tr=udp%3A%2F%2Ftracker.openbittorrent.com%3A80&amp;tr=udp%3A%2F%2Fopen.demonii.com%3A1337&amp;tr=udp%3A%2F%2Ftracker.coppersurfer.tk%3A6969&amp;tr=udp%3A%2F%2Fexodus.desync.com%3A6969","seeders":0,"leechers":2,"uploader":"Ltt_01","files":2,"time":1273343760,"description":"Iron Man.2008.1080p.BluRay.DTS.mkv\n**********************************\n\nTiTLE......  Iron Man\nYEAR.......  2008\nGENRE......  Action | Adventure | Sci-Fi | Thriller\niMDB RATE..  User Rating: 8.0/10 (162,673 votes)\niMDB URL... &lt;a href=&quot; http://www.imdb.com/title/tt0371746/&quot; rel=&quot;nofollow&quot; target=&quot;_NEW&quot;&gt; http://www.imdb.com/title/tt0371746/&lt;/a&gt;\n*************************************************\nAwards:Nominated for 2 Oscars. \nAnother 12 wins &amp; 42 nominations\n\nVideo\nDuration                         : 2h 6mn\nOverall bit rate                 : 7 720 Kbps\nWidth                            : 1 920 pixels\nHeight                           : 816 pixels\nDisplay aspect ratio             : 2.35:1\nFrame rate                       : 23.976 fps\nStream size                      : 5.33 GiB (78%)\n\nAudio\nFormat                           : DTS\nFormat/Info                      : Digital Theater Systems\nBit rate                         : 1 510 Kbps\nChannel(s)                       : 6 channels\nChannel positions                : Front: L C R, Surround: L R, LFE\nSampling rate                    : 48.0 KHz\nResolution                       : 24 bits\nStream size                      : 1.33 GiB (20%)\nLanguage                         : English\n\nSubtitles: English, French, Spanish, German, Czech,\nHungarian, Polish, Portuguese, rom, Swedish\n*************************************************\nFormat                           : ASS\nCodec ID                         : S_TEXT/ASS\nCodec ID/Info                    : Advanced Sub Station Alpha\n*************************************************************\n\n","torrent":{"xt":"urn:btih:0c711f6c7c9918d183e82acdb6d30b61c011f841","amp;dn":"Iron.Man.2008.1080p.BluRay.DTS.x264-LTT","amp;tr":["udp%3A%2F%2Ftracker.openbittorrent.com%3A80","udp%3A%2F%2Fopen.demonii.com%3A1337","udp%3A%2F%2Ftracker.coppersurfer.tk%3A6969","udp%3A%2F%2Fexodus.desync.com%3A6969"],"infoHash":"0c711f6c7c9918d183e82acdb6d30b61c011f841","infoHashBuffer":{"type":"Buffer","data":[12,113,31,108,124,153,24,209,131,232,42,205,182,211,11,97,192,17,248,65]},"announce":[],"urlList":[]}}